<svg xmlns="http://www.w3.org/2000/svg" viewBox="0 0 120 160" fill="none" aria-hidden="true">
  <title>Private-C alert silhouette</title>
  <!-- Minimal trench-coat figure, forward-facing, vector spy aesthetic -->
  <path fill="currentColor" d="M60 8c-8 0-14 6-15 14l-1 8c-6 2-10 8-10 15v6l-8 22 4 2 6-14v46l-12 38h10l8-28 4 28h8l4-28 8 28h10L76 94V48l6 14 4-2-8-22v-6c0-7-4-13-10-15l-1-8c-1-8-7-14-15-14Z"/>
  <ellipse cx="60" cy="22" rx="10" ry="11" fill="currentColor" opacity="0.95"/>
  <!-- Eyes forward -->
  <ellipse cx="55" cy="22" rx="2.2" ry="2.8" fill="#fff" opacity="0.92"/>
  <ellipse cx="65" cy="22" rx="2.2" ry="2.8" fill="#fff" opacity="0.92"/>
  <ellipse cx="55" cy="22" rx="1" ry="1.2" fill="currentColor"/>
  <ellipse cx="65" cy="22" rx="1" ry="1.2" fill="currentColor"/>
  <!-- Coat lapels hint -->
  <path stroke="currentColor" stroke-width="1.2" stroke-opacity="0.35" d="M48 52 L60 68 L72 52"/>
</svg>
